<?xml version="1.0" encoding="UTF-8"?><svg id="a" xmlns="http://www.w3.org/2000/svg" viewBox="0 0 100 100"><defs><style>.b{fill:#231f20;}.b,.c{stroke-width:0px;}.c{fill:#fff;}</style></defs><circle class="b" cx="50" cy="50" r="47.8"/><path class="c" d="m78.11,44.27c-2.62-13.21-14.52-22.62-28.23-22.54-1.79-.06-3.74.16-5.67.56-6.31,1.32-11.65,4.33-15.85,9.12-5.96,6.8-8.08,14.69-6.52,23.48.83,4.67,2.86,8.87,5.99,12.52.78.91.91,1.79.41,2.88-1.12,2.42-2.16,4.87-3.23,7.31-.08.19-.28.4-.16.58.13.19.4.05.6.02,3.77-.64,7.54-1.24,11.29-1.95,1.76-.33,3.4-.36,5.13.27,2.23.82,4.61,1.09,6.98,1.18,4.56.18,8.93-.67,13.07-2.54,12.04-5.45,18.72-18.1,16.19-30.89Zm-40.27,14.91c-2.06.58-4.51-1.61-5.46-4.89-.95-3.27-.06-6.39,2-6.97,2.06-.58,4.51,1.61,5.46,4.89.96,3.27.06,6.39-2,6.97Zm15.75-3.81c-2.42.67-5.3-1.9-6.42-5.74-1.12-3.85-.07-7.51,2.35-8.19,2.42-.68,5.3,1.89,6.42,5.74,1.12,3.85.07,7.51-2.35,8.19Z"/></svg>