<?xml version="1.0" encoding="UTF-8"?><svg id="a" xmlns="http://www.w3.org/2000/svg" viewBox="0 0 100 100"><defs><style>.b{stroke:#231f20;stroke-miterlimit:10;}.b,.c{fill:#231f20;}.c,.d{stroke-width:0px;}.d{fill:#fff;}</style></defs><circle class="c" cx="50" cy="50" r="47.8"/><path class="d" d="m78.11,44.27c-2.62-13.21-14.52-22.62-28.23-22.54-1.79-.06-3.74.16-5.67.56-6.31,1.32-11.65,4.33-15.85,9.12-5.96,6.8-8.08,14.69-6.52,23.48.83,4.67,2.86,8.87,5.99,12.52.78.91.91,1.79.41,2.88-1.12,2.42-2.16,4.87-3.23,7.31-.08.19-.28.4-.16.58.13.19.4.05.6.02,3.77-.64,7.54-1.24,11.29-1.95,1.76-.33,3.4-.36,5.13.27,2.23.82,4.61,1.09,6.98,1.18,4.56.18,8.93-.67,13.07-2.54,12.04-5.45,18.72-18.1,16.19-30.89Z"/><path class="b" d="m34.13,52.72c0-.1.04-.2.12-.29l2.17-2.42-2.13-2.41c-.09-.1-.13-.2-.13-.31,0-.25.27-.43.62-.43.22,0,.34.06.48.22l1.86,2.18h.03l1.82-2.15c.14-.17.28-.24.49-.24.36,0,.62.19.62.43,0,.11-.04.21-.12.3l-2.15,2.38,2.12,2.45c.09.11.13.21.13.31,0,.25-.26.45-.6.45-.2,0-.37-.06-.48-.2l-1.87-2.23h-.03l-1.88,2.23c-.12.14-.27.2-.47.2-.34,0-.59-.19-.59-.44Z"/><path class="c" d="m48.64,53.96c0-.15.06-.29.18-.43l3.17-3.53-3.1-3.51c-.13-.15-.19-.29-.19-.45,0-.36.39-.63.9-.63.32,0,.5.09.7.32l2.71,3.17h.04l2.65-3.14c.21-.25.41-.35.71-.35.52,0,.91.27.91.63,0,.15-.06.31-.18.44l-3.13,3.47,3.09,3.56c.13.15.19.3.19.44,0,.37-.38.65-.88.65-.3,0-.54-.09-.7-.29l-2.72-3.25h-.04l-2.74,3.25c-.17.2-.39.29-.69.29-.5,0-.86-.27-.86-.64Z"/></svg>